<svg version="1.1" id="Layer_1" xmlns="http://www.w3.org/2000/svg" xmlns:xlink="http://www.w3.org/1999/xlink" x="0px" y="0px"
	 width="100%" viewBox="0 0 500 500" enable-background="new 0 0 500 500" xml:space="preserve">
<path fill="#FFFFFF" opacity="1.000000" stroke="none" 
	d="
M293.000000,501.000000 
	C195.333359,501.000000 98.166710,501.000000 1.000052,501.000000 
	C1.000035,334.333405 1.000035,167.666794 1.000017,1.000142 
	C167.666565,1.000094 334.333130,1.000094 500.999756,1.000047 
	C500.999847,167.666519 500.999847,334.333038 500.999939,500.999786 
	C431.833344,501.000000 362.666656,501.000000 293.000000,501.000000 
M156.565887,223.986252 
	C156.734573,223.674850 156.903244,223.363434 157.011078,223.066498 
	C157.011078,223.066498 157.075455,223.075943 157.905762,222.980804 
	C158.164734,217.246521 158.446289,211.512878 158.611343,205.775894 
	C158.619034,205.508514 157.585938,205.211197 156.997849,204.984421 
	C156.997849,204.984421 157.064896,204.967545 156.888596,204.465591 
	C156.554031,204.389175 156.219452,204.312744 155.042984,204.097961 
	C153.463959,204.207474 151.884949,204.316986 149.650360,204.471970 
	C149.650360,209.844818 149.650360,214.685516 149.650360,219.797409 
	C145.816849,218.118301 145.816833,218.118301 145.796890,211.080505 
	C145.777130,204.106964 144.373505,203.055191 136.969284,204.934204 
	C136.969284,208.602356 136.918152,212.400314 136.981293,216.196350 
	C137.075577,221.865204 139.125885,224.677261 144.658096,225.472549 
	C147.679062,225.906830 150.870987,225.151840 154.599182,224.969101 
	C155.085037,224.647980 155.570908,224.326874 155.996201,223.989471 
	C155.996201,223.989471 155.983475,224.050873 156.565887,223.986252 
M103.582336,224.032806 
	C103.771568,223.734238 103.960800,223.435684 104.020683,223.140671 
	C104.020683,223.140671 104.140808,223.188812 104.838951,223.190918 
	C105.253708,222.479446 105.668465,221.767975 106.047501,221.086777 
	C106.047501,221.086777 106.096519,221.080475 106.856461,221.048233 
	C110.613518,214.446121 108.717880,207.434647 108.284241,200.538818 
	C108.270134,200.314392 107.487701,200.138275 107.007454,199.975311 
	C107.007454,199.975311 107.060318,199.949753 106.978790,199.372742 
	C106.615517,199.276474 106.252251,199.180222 105.219307,198.915314 
	C103.324036,198.915314 101.428764,198.915314 99.266174,198.915314 
	C99.266174,204.721237 99.244766,209.697739 99.273689,214.673935 
	C99.292999,217.995041 98.018753,219.776901 94.107414,218.166901 
	C93.775635,213.293503 93.668755,208.388260 92.986015,203.564529 
	C92.757423,201.949478 91.059425,200.542404 89.359383,198.848801 
	C87.625305,198.848801 85.891228,198.848801 83.910889,198.848801 
	C83.910889,203.866867 83.903206,208.148117 83.912384,212.429337 
	C83.936234,223.554977 90.035736,228.031372 101.633255,225.022018 
	C102.112701,224.693542 102.592148,224.365067 103.008720,224.008743 
	C103.008720,224.008743 103.008797,224.077499 103.582336,224.032806 
M128.781235,204.433502 
	C128.213684,204.308838 127.646118,204.184158 126.288757,203.865646 
	C124.338036,203.660507 122.387306,203.455368 120.454636,203.252121 
	C119.514557,196.794846 118.447609,196.074982 111.862709,197.739182 
	C111.862709,204.924789 111.747322,212.212723 111.962593,219.490860 
	C112.004349,220.902298 113.002319,222.696045 114.131599,223.591995 
	C118.480949,227.042786 126.122887,226.593033 131.510696,222.997284 
	C136.780945,217.985397 136.540314,210.495911 130.989120,206.013016 
	C130.989120,206.013016 131.007965,206.033356 130.744980,205.462189 
	C130.164780,205.280014 129.584579,205.097839 129.010361,204.986465 
	C129.010361,204.986465 129.075485,204.958054 128.781235,204.433502 
M247.750732,225.032486 
	C248.317230,224.708557 248.883743,224.384644 249.546677,224.069427 
	C249.546677,224.069427 249.617691,224.003601 250.444260,223.919434 
	C251.059326,223.405243 252.187286,222.912735 252.210083,222.373505 
	C252.437515,216.995178 252.614944,211.604401 252.422134,206.230942 
	C252.396286,205.510452 250.241180,204.866364 248.228622,204.075165 
	C244.564163,203.484955 242.969070,204.887436 243.394333,208.717224 
	C243.649979,211.019592 243.716568,213.419510 243.340073,215.687958 
	C243.098373,217.144302 241.896133,218.441238 241.124451,219.809631 
	C240.538467,218.506744 239.623764,217.247818 239.442230,215.890808 
	C239.157837,213.764694 239.386765,211.572144 239.365952,209.408051 
	C239.329208,205.588577 236.855301,204.309311 233.574600,204.066605 
	C229.415726,203.758911 230.387741,206.877304 230.286621,209.220459 
	C230.236435,210.383698 230.276947,211.550903 230.278122,212.716309 
	C230.288879,223.450882 233.286194,226.278351 244.698288,225.868423 
	C245.445663,225.595215 246.193054,225.322006 247.020691,225.051163 
	C247.020691,225.051163 247.090271,225.011047 247.750732,225.032486 
M169.769501,224.959457 
	C170.154617,223.511856 170.785522,222.079422 170.876007,220.613632 
	C171.095047,217.065353 171.062180,213.501511 171.956238,209.835190 
	C172.928879,210.860916 174.444031,211.748245 174.749115,212.944260 
	C175.226151,214.814392 174.882507,216.893448 174.889603,218.883987 
	C174.913895,225.702789 176.753708,226.881042 183.686478,224.230820 
	C183.686478,220.044296 183.967804,215.718292 183.560318,211.458145 
	C183.374176,209.511993 182.308807,207.054886 180.813995,205.938492 
	C175.978622,202.327209 170.554825,202.956284 165.214813,205.003662 
	C160.585541,206.778564 161.759323,210.845917 161.613815,214.361786 
	C161.545288,216.017776 161.584045,217.679230 161.606674,219.337769 
	C161.688034,225.301910 162.593994,226.001328 169.769501,224.959457 
M352.613403,223.934708 
	C352.613403,212.176514 352.613403,200.418335 352.613403,188.455505 
	C349.901764,188.455505 347.674683,188.455505 344.984222,188.455505 
	C344.984222,191.202057 344.984222,193.663177 344.984222,196.124298 
	C344.984222,198.702454 344.984222,201.280609 344.984222,204.254791 
	C343.088898,203.625259 341.879974,203.143021 340.629517,202.822922 
	C336.140900,201.673813 332.347137,202.965271 329.500671,206.527786 
	C326.415802,210.388657 326.144531,214.805893 328.042297,219.235306 
	C329.847595,223.448990 333.729340,226.762421 337.753204,225.430862 
	C342.753754,223.776093 347.452942,226.052887 352.613403,223.934708 
M374.914490,204.217789 
	C368.113312,209.374893 366.971252,216.863159 372.198883,222.023224 
	C376.778168,226.543320 385.192688,227.027130 390.599030,223.081161 
	C396.975220,218.427338 396.875244,209.291351 390.292206,204.915085 
	C385.649292,201.828537 380.684937,201.614609 374.914490,204.217789 
M303.772644,223.850235 
	C307.479553,224.432785 311.196045,225.535797 314.890991,225.467865 
	C319.651184,225.380386 323.281250,222.804779 323.704376,217.693481 
	C324.095367,212.970444 323.787628,208.189560 323.787628,203.355408 
	C321.072418,203.355408 318.842651,203.355408 316.102386,203.355408 
	C316.102386,207.276154 316.516266,210.964447 315.926727,214.484711 
	C315.634552,216.229553 313.735779,218.643616 312.142883,219.033035 
	C309.024139,219.795517 307.893341,217.293396 307.882172,214.424469 
	C307.868042,210.811142 307.878754,207.197723 307.878754,203.456741 
	C304.962799,203.456741 302.622803,203.456741 300.038391,203.456741 
	C300.038391,206.350967 300.007233,208.829819 300.045319,211.307617 
	C300.110901,215.575745 299.378723,220.061478 303.772644,223.850235 
M226.576187,196.402130 
	C224.425369,196.279236 222.251343,195.897110 220.128510,196.087036 
	C215.614685,196.490906 212.517151,198.929153 212.274994,203.607239 
	C211.965530,209.585266 212.143066,215.590195 212.168930,221.583282 
	C212.184006,225.076965 214.858414,225.900726 217.314072,225.352203 
	C218.810425,225.017975 220.646469,222.947372 220.978561,221.371857 
	C221.572678,218.553192 221.145935,215.519348 221.145935,213.394669 
	C224.202332,211.707062 226.456268,210.462524 228.710220,209.217987 
	C228.615082,208.710068 228.519943,208.202148 228.424805,207.694229 
	C225.971146,206.731277 223.517487,205.768326 221.063812,204.805374 
	C220.927841,204.370056 220.791870,203.934738 220.655884,203.499420 
	C222.317825,203.013077 223.989929,202.558395 225.638275,202.029663 
	C226.812225,201.653107 227.954208,201.176865 229.110458,200.745102 
	C228.506622,199.403702 227.902786,198.062317 226.576187,196.402130 
M292.811432,212.585632 
	C293.922302,210.949417 295.033173,209.313202 296.144043,207.676987 
	C296.459076,207.853256 296.774078,208.029541 297.089111,208.205811 
	C297.089111,206.602737 297.089111,204.999664 297.089111,203.402771 
	C295.591919,203.109344 294.349579,202.865860 292.964569,202.594421 
	C292.837341,199.983948 292.720856,197.593842 292.610657,195.332489 
	C289.766449,195.332489 287.532318,195.332489 285.371033,195.332489 
	C284.380096,198.462173 286.554749,202.335617 282.204163,204.025421 
	C281.735382,204.207504 281.747467,207.859482 282.302765,208.094971 
	C286.967987,210.073456 284.747101,213.999481 284.942169,217.017761 
	C285.457703,224.994659 290.864624,228.005539 298.204559,223.567001 
	C297.374451,221.934952 296.734894,218.993607 295.626678,218.804916 
	C291.840820,218.160309 293.126251,215.543427 292.811432,212.585632 
M277.488953,213.095886 
	C274.998108,211.837799 272.507233,210.579697 270.016388,209.321594 
	C270.157074,208.902069 270.297760,208.482544 270.438446,208.063019 
	C272.771271,208.194946 275.104095,208.326874 277.615417,208.468903 
	C278.172577,207.127777 278.722900,205.803085 279.261749,204.505966 
	C273.533875,201.415619 266.393860,201.763657 264.108521,205.686920 
	C259.148529,214.201904 268.284271,214.842133 272.113861,218.430054 
	C271.922272,218.925964 271.730682,219.421890 271.539093,219.917816 
	C269.115204,219.397308 266.691284,218.876816 263.823914,218.261078 
	C263.140350,219.528244 262.318665,221.051483 261.434845,222.689957 
	C265.254578,225.807068 269.205292,226.267715 273.420471,225.343765 
	C279.999237,223.901749 281.773895,219.361465 277.488953,213.095886 
M398.803436,210.233932 
	C401.689301,213.114136 404.575134,215.994324 408.693176,220.104294 
	C405.162262,219.378860 402.750641,218.883392 399.848450,218.287140 
	C399.187866,219.464752 398.337585,220.980591 396.652710,223.984253 
	C401.387848,224.573380 405.140228,225.499680 408.856598,225.372574 
	C412.529053,225.246964 415.557465,223.383591 415.987549,219.082779 
	C416.417236,214.786057 413.740265,212.821121 410.285706,211.370743 
	C408.827087,210.758331 407.447174,209.958328 406.031494,209.243607 
	C406.189911,208.829224 406.348328,208.414841 406.506775,208.000473 
	C408.734894,208.180038 410.963013,208.359604 413.542847,208.567505 
	C414.087341,207.266342 414.691040,205.823746 415.285461,204.403244 
	C406.828278,200.322098 400.401581,202.440659 398.803436,210.233932 
M365.215302,204.777084 
	C363.040955,204.024918 360.866638,203.272736 358.189423,202.346603 
	C358.189423,210.599213 358.189423,217.621490 358.189423,224.756058 
	C360.586456,224.756058 362.662048,224.756058 364.630310,224.756058 
	C364.883698,224.214645 365.131592,223.929977 365.134399,223.642914 
	C365.192596,217.671494 365.223022,211.699783 365.215302,204.777084 
M198.855194,195.171371 
	C190.114960,194.661118 185.736664,200.175095 188.041473,208.879364 
	C188.209396,209.513550 188.958542,209.993835 189.437454,210.545685 
	C189.989182,209.882233 190.908829,209.274719 191.019867,208.544296 
	C191.292526,206.750778 190.577225,204.538498 191.388763,203.159180 
	C192.570023,201.151459 194.578979,198.726166 196.550293,198.403152 
	C197.883453,198.184708 200.193558,201.037933 201.248032,202.965195 
	C202.028427,204.391495 201.353027,206.558319 201.603455,208.356628 
	C201.712524,209.139999 202.516083,209.826675 203.004227,210.557266 
	C203.626846,209.955841 204.619614,209.454208 204.813019,208.737030 
	C206.247147,203.418610 204.208847,198.396774 198.855194,195.171371 
M191.847656,223.284912 
	C191.591003,221.664856 191.461273,220.010956 191.041138,218.434479 
	C190.641525,216.934998 189.938477,215.516388 189.368851,214.062210 
	C188.905029,215.615189 188.410248,217.159988 187.996384,218.726166 
	C187.873444,219.191422 187.970901,219.716888 187.979248,220.214554 
	C188.079117,226.170654 191.294998,229.736450 196.495850,229.660782 
	C201.430496,229.588989 204.794296,226.088760 204.792282,220.437469 
	C204.791519,218.311691 203.739853,216.186264 203.167267,214.060684 
	C202.616608,216.054138 202.242645,218.119659 201.466980,220.021332 
	C200.646240,222.033539 199.867599,224.821777 198.283707,225.543030 
	C196.802414,226.217529 194.290100,224.627838 191.847656,223.284912 
M357.168549,193.661041 
	C358.680756,195.314575 359.977997,197.340790 361.828400,198.408066 
	C362.430084,198.755112 365.502594,196.704880 365.623901,195.558365 
	C365.808136,193.817291 364.916534,191.103317 363.564148,190.239639 
	C360.848602,188.505417 358.542664,190.017654 357.168549,193.661041 
M198.057236,216.854980 
	C198.053085,213.721924 198.169098,210.580841 197.961166,207.461365 
	C197.908508,206.671402 196.823212,205.950287 196.212433,205.197540 
	C195.669876,205.867340 194.689758,206.517441 194.658600,207.210251 
	C194.503159,210.665497 194.194702,214.196854 194.738922,217.572632 
	C195.127960,219.985657 196.828125,220.281952 198.057236,216.854980 
z"/>
<path fill="#7A4FE2" opacity="1.000000" stroke="none" 
	d="
M352.373260,224.300964 
	C347.452942,226.052887 342.753754,223.776093 337.753204,225.430862 
	C333.729340,226.762421 329.847595,223.448990 328.042297,219.235306 
	C326.144531,214.805893 326.415802,210.388657 329.500671,206.527786 
	C332.347137,202.965271 336.140900,201.673813 340.629517,202.822922 
	C341.879974,203.143021 343.088898,203.625259 344.984222,204.254791 
	C344.984222,201.280609 344.984222,198.702454 344.984222,196.124298 
	C344.984222,193.663177 344.984222,191.202057 344.984222,188.455505 
	C347.674683,188.455505 349.901764,188.455505 352.613403,188.455505 
	C352.613403,200.418335 352.613403,212.176514 352.373260,224.300964 
M344.782166,216.044144 
	C345.001404,210.653641 341.847534,207.435760 338.134583,209.549957 
	C336.692566,210.371078 335.375793,212.569870 335.268127,214.223495 
	C335.176147,215.636917 336.806061,218.327606 337.831085,218.406067 
	C339.968201,218.569687 342.208923,217.379898 344.782166,216.044144 
z"/>
<path fill="#21C2E8" opacity="1.000000" stroke="none" 
	d="
M101.015976,224.988739 
	C90.035736,228.031372 83.936234,223.554977 83.912384,212.429337 
	C83.903206,208.148117 83.910889,203.866867 83.910889,198.848801 
	C85.891228,198.848801 87.625305,198.848801 89.908470,199.305450 
	C90.699402,204.294464 90.651604,208.869812 91.315369,213.339493 
	C91.610603,215.327499 93.340500,217.102432 94.419205,218.974075 
	C98.018753,219.776901 99.292999,217.995041 99.273689,214.673935 
	C99.244766,209.697739 99.266174,204.721237 99.266174,198.915314 
	C101.428764,198.915314 103.324036,198.915314 105.684555,199.224701 
	C106.453300,199.672638 106.756813,199.811203 107.060318,199.949753 
	C107.060318,199.949753 107.007454,199.975311 106.999748,200.427917 
	C106.693535,207.613831 106.395027,214.347153 106.096519,221.080475 
	C106.096519,221.080475 106.047501,221.086777 105.771591,221.156464 
	C105.044052,221.880371 104.592438,222.534592 104.140808,223.188812 
	C104.140808,223.188812 104.020683,223.140671 103.826279,223.197784 
	C103.424179,223.529099 103.216492,223.803299 103.008804,224.077499 
	C103.008797,224.077499 103.008720,224.008743 102.740875,224.028793 
	C101.987343,224.362152 101.501663,224.675446 101.015976,224.988739 
z"/>
<path fill="#7A4FE2" opacity="1.000000" stroke="none" 
	d="
M375.262573,204.063690 
	C380.684937,201.614609 385.649292,201.828537 390.292206,204.915085 
	C396.875244,209.291351 396.975220,218.427338 390.599030,223.081161 
	C385.192688,227.027130 376.778168,226.543320 372.198883,222.023224 
	C366.971252,216.863159 368.113312,209.374893 375.262573,204.063690 
M377.810242,211.454819 
	C376.226624,214.928726 376.912048,217.931915 380.736938,218.728973 
	C382.447632,219.085464 385.359985,217.767761 386.337738,216.290390 
	C387.161407,215.045898 386.627563,211.943649 385.539307,210.598083 
	C383.443481,208.006607 380.631561,208.540131 377.810242,211.454819 
z"/>
<path fill="#21C2E8" opacity="1.000000" stroke="none" 
	d="
M130.741943,222.915024 
	C126.122887,226.593033 118.480949,227.042786 114.131599,223.591995 
	C113.002319,222.696045 112.004349,220.902298 111.962593,219.490860 
	C111.747322,212.212723 111.862709,204.924789 111.862709,197.739182 
	C118.447609,196.074982 119.514557,196.794846 120.454636,203.252121 
	C122.387306,203.455368 124.338036,203.660507 126.866089,204.183502 
	C127.987442,204.653595 128.531464,204.805817 129.075485,204.958054 
	C129.075485,204.958054 129.010361,204.986465 129.159576,205.223969 
	C129.875183,205.652084 130.441574,205.842712 131.007965,206.033356 
	C131.007965,206.033356 130.989120,206.013016 130.993011,206.396484 
	C134.167343,212.209763 133.866089,217.584702 130.741943,222.915024 
M119.745766,211.546234 
	C119.736176,213.363876 119.262787,215.360672 119.872475,216.939117 
	C120.313057,218.079758 122.192757,218.664520 123.430641,219.497192 
	C124.096977,217.016968 125.583427,214.407700 125.218697,212.089706 
	C124.778847,209.294342 122.330582,208.759277 119.745766,211.546234 
z"/>
<path fill="#7A4FE2" opacity="1.000000" stroke="none" 
	d="
M303.470886,223.609558 
	C299.378723,220.061478 300.110901,215.575745 300.045319,211.307617 
	C300.007233,208.829819 300.038391,206.350967 300.038391,203.456741 
	C302.622803,203.456741 304.962799,203.456741 307.878754,203.456741 
	C307.878754,207.197723 307.868042,210.811142 307.882172,214.424469 
	C307.893341,217.293396 309.024139,219.795517 312.142883,219.033035 
	C313.735779,218.643616 315.634552,216.229553 315.926727,214.484711 
	C316.516266,210.964447 316.102386,207.276154 316.102386,203.355408 
	C318.842651,203.355408 321.072418,203.355408 323.787628,203.355408 
	C323.787628,208.189560 324.095367,212.970444 323.704376,217.693481 
	C323.281250,222.804779 319.651184,225.380386 314.890991,225.467865 
	C311.196045,225.535797 307.479553,224.432785 303.470886,223.609558 
z"/>
<path fill="#21C2E8" opacity="1.000000" stroke="none" 
	d="
M168.922302,225.021667 
	C162.593994,226.001328 161.688034,225.301910 161.606674,219.337769 
	C161.584045,217.679230 161.545288,216.017776 161.613815,214.361786 
	C161.759323,210.845917 160.585541,206.778564 165.214813,205.003662 
	C170.554825,202.956284 175.978622,202.327209 180.813995,205.938492 
	C182.308807,207.054886 183.374176,209.511993 183.560318,211.458145 
	C183.967804,215.718292 183.686478,220.044296 183.686478,224.230820 
	C176.753708,226.881042 174.913895,225.702789 174.889603,218.883987 
	C174.882507,216.893448 175.226151,214.814392 174.749115,212.944260 
	C174.444031,211.748245 172.928879,210.860916 171.113953,209.937592 
	C169.858063,211.308807 169.152679,212.562485 169.086060,213.849243 
	C168.893646,217.566254 168.958481,221.296570 168.922302,225.021667 
z"/>
<path fill="#21C2E8" opacity="1.000000" stroke="none" 
	d="
M249.617691,224.003601 
	C249.617691,224.003601 249.546677,224.069427 249.157471,224.075974 
	C248.208923,224.392029 247.649597,224.701538 247.090271,225.011047 
	C247.090271,225.011047 247.020691,225.051163 246.676514,225.030243 
	C245.586060,225.256012 244.839767,225.502686 244.093475,225.749374 
	C233.286194,226.278351 230.288879,223.450882 230.278122,212.716309 
	C230.276947,211.550903 230.236435,210.383698 230.286621,209.220459 
	C230.387741,206.877304 229.415726,203.758911 233.574600,204.066605 
	C236.855301,204.309311 239.329208,205.588577 239.365952,209.408051 
	C239.386765,211.572144 239.157837,213.764694 239.442230,215.890808 
	C239.623764,217.247818 240.538467,218.506744 241.124451,219.809631 
	C241.896133,218.441238 243.098373,217.144302 243.340073,215.687958 
	C243.716568,213.419510 243.649979,211.019592 243.394333,208.717224 
	C242.969070,204.887436 244.564163,203.484955 248.865326,204.433716 
	C249.540588,211.196060 249.579147,217.599823 249.617691,224.003601 
z"/>
<path fill="#21C2E8" opacity="1.000000" stroke="none" 
	d="
M226.937561,196.561523 
	C227.902786,198.062317 228.506622,199.403702 229.110458,200.745102 
	C227.954208,201.176865 226.812225,201.653107 225.638275,202.029663 
	C223.989929,202.558395 222.317825,203.013077 220.655884,203.499420 
	C220.791870,203.934738 220.927841,204.370056 221.063812,204.805374 
	C223.517487,205.768326 225.971146,206.731277 228.424805,207.694229 
	C228.519943,208.202148 228.615082,208.710068 228.710220,209.217987 
	C226.456268,210.462524 224.202332,211.707062 221.145935,213.394669 
	C221.145935,215.519348 221.572678,218.553192 220.978561,221.371857 
	C220.646469,222.947372 218.810425,225.017975 217.314072,225.352203 
	C214.858414,225.900726 212.184006,225.076965 212.168930,221.583282 
	C212.143066,215.590195 211.965530,209.585266 212.274994,203.607239 
	C212.517151,198.929153 215.614685,196.490906 220.128510,196.087036 
	C222.251343,195.897110 224.425369,196.279236 226.937561,196.561523 
z"/>
<path fill="#21C2E8" opacity="1.000000" stroke="none" 
	d="
M153.985825,224.933167 
	C150.870987,225.151840 147.679062,225.906830 144.658096,225.472549 
	C139.125885,224.677261 137.075577,221.865204 136.981293,216.196350 
	C136.918152,212.400314 136.969284,208.602356 136.969284,204.934204 
	C144.373505,203.055191 145.777130,204.106964 145.796890,211.080505 
	C145.816833,218.118301 145.816849,218.118301 149.650360,219.797409 
	C149.650360,214.685516 149.650360,209.844818 149.650360,204.471970 
	C151.884949,204.316986 153.463959,204.207474 155.606232,204.365753 
	C156.422989,204.865433 156.721466,204.976761 157.064896,204.967545 
	C157.064896,204.967545 156.997849,204.984421 157.029190,205.429077 
	C157.065506,211.607819 157.070480,217.341873 157.075439,223.075943 
	C157.075455,223.075943 157.011078,223.066498 156.787811,223.132660 
	C156.370865,223.482849 156.177170,223.766861 155.983475,224.050873 
	C155.983475,224.050873 155.996201,223.989471 155.726593,224.002777 
	C154.966583,224.321793 154.476196,224.627487 153.985825,224.933167 
z"/>
<path fill="#7A4FE2" opacity="1.000000" stroke="none" 
	d="
M292.811157,213.038544 
	C293.126251,215.543427 291.840820,218.160309 295.626678,218.804916 
	C296.734894,218.993607 297.374451,221.934952 298.204559,223.567001 
	C290.864624,228.005539 285.457703,224.994659 284.942169,217.017761 
	C284.747101,213.999481 286.967987,210.073456 282.302765,208.094971 
	C281.747467,207.859482 281.735382,204.207504 282.204163,204.025421 
	C286.554749,202.335617 284.380096,198.462173 285.371033,195.332489 
	C287.532318,195.332489 289.766449,195.332489 292.610657,195.332489 
	C292.720856,197.593842 292.837341,199.983948 292.964569,202.594421 
	C294.349579,202.865860 295.591919,203.109344 297.089111,203.402771 
	C297.089111,204.999664 297.089111,206.602737 297.089111,208.205811 
	C296.774078,208.029541 296.459076,207.853256 296.144043,207.676987 
	C295.033173,209.313202 293.922302,210.949417 292.811157,213.038544 
z"/>
<path fill="#7A4FE2" opacity="1.000000" stroke="none" 
	d="
M277.775085,213.349243 
	C281.773895,219.361465 279.999237,223.901749 273.420471,225.343765 
	C269.205292,226.267715 265.254578,225.807068 261.434845,222.689957 
	C262.318665,221.051483 263.140350,219.528244 263.823914,218.261078 
	C266.691284,218.876816 269.115204,219.397308 271.539093,219.917816 
	C271.730682,219.421890 271.922272,218.925964 272.113861,218.430054 
	C268.284271,214.842133 259.148529,214.201904 264.108521,205.686920 
	C266.393860,201.763657 273.533875,201.415619 279.261749,204.505966 
	C278.722900,205.803085 278.172577,207.127777 277.615417,208.468903 
	C275.104095,208.326874 272.771271,208.194946 270.438446,208.063019 
	C270.297760,208.482544 270.157074,208.902069 270.016388,209.321594 
	C272.507233,210.579697 274.998108,211.837799 277.775085,213.349243 
z"/>
<path fill="#7A4FE2" opacity="1.000000" stroke="none" 
	d="
M398.791138,209.886688 
	C400.401581,202.440659 406.828278,200.322098 415.285461,204.403244 
	C414.691040,205.823746 414.087341,207.266342 413.542847,208.567505 
	C410.963013,208.359604 408.734894,208.180038 406.506775,208.000473 
	C406.348328,208.414841 406.189911,208.829224 406.031494,209.243607 
	C407.447174,209.958328 408.827087,210.758331 410.285706,211.370743 
	C413.740265,212.821121 416.417236,214.786057 415.987549,219.082779 
	C415.557465,223.383591 412.529053,225.246964 408.856598,225.372574 
	C405.140228,225.499680 401.387848,224.573380 396.652710,223.984253 
	C398.337585,220.980591 399.187866,219.464752 399.848450,218.287140 
	C402.750641,218.883392 405.162262,219.378860 408.693176,220.104294 
	C404.575134,215.994324 401.689301,213.114136 398.791138,209.886688 
z"/>
<path fill="#7A4FE2" opacity="1.000000" stroke="none" 
	d="
M365.237122,205.252609 
	C365.223022,211.699783 365.192596,217.671494 365.134399,223.642914 
	C365.131592,223.929977 364.883698,224.214645 364.630310,224.756058 
	C362.662048,224.756058 360.586456,224.756058 358.189423,224.756058 
	C358.189423,217.621490 358.189423,210.599213 358.189423,202.346603 
	C360.866638,203.272736 363.040955,204.024918 365.237122,205.252609 
z"/>
<path fill="#7A4FE2" opacity="1.000000" stroke="none" 
	d="
M199.226593,195.319916 
	C204.208847,198.396774 206.247147,203.418610 204.813019,208.737030 
	C204.619614,209.454208 203.626846,209.955841 203.004227,210.557266 
	C202.516083,209.826675 201.712524,209.139999 201.603455,208.356628 
	C201.353027,206.558319 202.028427,204.391495 201.248032,202.965195 
	C200.193558,201.037933 197.883453,198.184708 196.550293,198.403152 
	C194.578979,198.726166 192.570023,201.151459 191.388763,203.159180 
	C190.577225,204.538498 191.292526,206.750778 191.019867,208.544296 
	C190.908829,209.274719 189.989182,209.882233 189.437454,210.545685 
	C188.958542,209.993835 188.209396,209.513550 188.041473,208.879364 
	C185.736664,200.175095 190.114960,194.661118 199.226593,195.319916 
z"/>
<path fill="#7A4FE2" opacity="1.000000" stroke="none" 
	d="
M192.039612,223.659775 
	C194.290100,224.627838 196.802414,226.217529 198.283707,225.543030 
	C199.867599,224.821777 200.646240,222.033539 201.466980,220.021332 
	C202.242645,218.119659 202.616608,216.054138 203.167267,214.060684 
	C203.739853,216.186264 204.791519,218.311691 204.792282,220.437469 
	C204.794296,226.088760 201.430496,229.588989 196.495850,229.660782 
	C191.294998,229.736450 188.079117,226.170654 187.979248,220.214554 
	C187.970901,219.716888 187.873444,219.191422 187.996384,218.726166 
	C188.410248,217.159988 188.905029,215.615189 189.368851,214.062210 
	C189.938477,215.516388 190.641525,216.934998 191.041138,218.434479 
	C191.461273,220.010956 191.591003,221.664856 192.039612,223.659775 
z"/>
<path fill="#7A4FE2" opacity="1.000000" stroke="none" 
	d="
M357.241821,193.303925 
	C358.542664,190.017654 360.848602,188.505417 363.564148,190.239639 
	C364.916534,191.103317 365.808136,193.817291 365.623901,195.558365 
	C365.502594,196.704880 362.430084,198.755112 361.828400,198.408066 
	C359.977997,197.340790 358.680756,195.314575 357.241821,193.303925 
z"/>
<path fill="#7A4FE2" opacity="1.000000" stroke="none" 
	d="
M198.050049,217.269379 
	C196.828125,220.281952 195.127960,219.985657 194.738922,217.572632 
	C194.194702,214.196854 194.503159,210.665497 194.658600,207.210251 
	C194.689758,206.517441 195.669876,205.867340 196.212433,205.197540 
	C196.823212,205.950287 197.908508,206.671402 197.961166,207.461365 
	C198.169098,210.580841 198.053085,213.721924 198.050049,217.269379 
z"/>
<path fill="#8EA4A8" opacity="1.000000" stroke="none" 
	d="
M106.476486,221.064362 
	C106.395027,214.347153 106.693535,207.613831 107.027740,200.410065 
	C107.487701,200.138275 108.270134,200.314392 108.284241,200.538818 
	C108.717880,207.434647 110.613518,214.446121 106.476486,221.064362 
z"/>
<path fill="#8EA4A8" opacity="1.000000" stroke="none" 
	d="
M250.030975,223.961517 
	C249.579147,217.599823 249.540588,211.196060 249.287048,204.489594 
	C250.241180,204.866364 252.396286,205.510452 252.422134,206.230942 
	C252.614944,211.604401 252.437515,216.995178 252.210083,222.373505 
	C252.187286,222.912735 251.059326,223.405243 250.030975,223.961517 
z"/>
<path fill="#8EA4A8" opacity="1.000000" stroke="none" 
	d="
M94.263306,218.570496 
	C93.340500,217.102432 91.610603,215.327499 91.315369,213.339493 
	C90.651604,208.869812 90.699402,204.294464 90.245331,199.401184 
	C91.059425,200.542404 92.757423,201.949478 92.986015,203.564529 
	C93.668755,208.388260 93.775635,213.293503 94.263306,218.570496 
z"/>
<path fill="#8EA4A8" opacity="1.000000" stroke="none" 
	d="
M131.126312,222.956146 
	C133.866089,217.584702 134.167343,212.209763 130.980774,206.390015 
	C136.540314,210.495911 136.780945,217.985397 131.126312,222.956146 
z"/>
<path fill="#8EA4A8" opacity="1.000000" stroke="none" 
	d="
M157.490601,223.028381 
	C157.070480,217.341873 157.065506,211.607819 157.049057,205.400787 
	C157.585938,205.211197 158.619034,205.508514 158.611343,205.775894 
	C158.446289,211.512878 158.164734,217.246521 157.490601,223.028381 
z"/>
<path fill="#8EA4A8" opacity="1.000000" stroke="none" 
	d="
M169.345901,224.990570 
	C168.958481,221.296570 168.893646,217.566254 169.086060,213.849243 
	C169.152679,212.562485 169.858063,211.308807 170.701263,209.991974 
	C171.062180,213.501511 171.095047,217.065353 170.876007,220.613632 
	C170.785522,222.079422 170.154617,223.511856 169.345901,224.990570 
z"/>
<path fill="#8EA4A8" opacity="1.000000" stroke="none" 
	d="
M104.489883,223.189865 
	C104.592438,222.534592 105.044052,221.880371 105.789444,221.141327 
	C105.668465,221.767975 105.253708,222.479446 104.489883,223.189865 
z"/>
<path fill="#8EA4A8" opacity="1.000000" stroke="none" 
	d="
M244.395874,225.808899 
	C244.839767,225.502686 245.586060,225.256012 246.636383,225.029083 
	C246.193054,225.322006 245.445663,225.595215 244.395874,225.808899 
z"/>
<path fill="#8EA4A8" opacity="1.000000" stroke="none" 
	d="
M130.876465,205.747772 
	C130.441574,205.842712 129.875183,205.652084 129.156586,205.188568 
	C129.584579,205.097839 130.164780,205.280014 130.876465,205.747772 
z"/>
<path fill="#8EA4A8" opacity="1.000000" stroke="none" 
	d="
M128.928360,204.695770 
	C128.531464,204.805817 127.987442,204.653595 127.260986,204.280426 
	C127.646118,204.184158 128.213684,204.308838 128.928360,204.695770 
z"/>
<path fill="#8EA4A8" opacity="1.000000" stroke="none" 
	d="
M101.324615,225.005371 
	C101.501663,224.675446 101.987343,224.362152 102.772308,224.042709 
	C102.592148,224.365067 102.112701,224.693542 101.324615,225.005371 
z"/>
<path fill="#8EA4A8" opacity="1.000000" stroke="none" 
	d="
M154.292511,224.951141 
	C154.476196,224.627487 154.966583,224.321793 155.756866,224.010925 
	C155.570908,224.326874 155.085037,224.647980 154.292511,224.951141 
z"/>
<path fill="#8EA4A8" opacity="1.000000" stroke="none" 
	d="
M247.420502,225.021774 
	C247.649597,224.701538 248.208923,224.392029 249.109253,224.071625 
	C248.883743,224.384644 248.317230,224.708557 247.420502,225.021774 
z"/>
<path fill="#8EA4A8" opacity="1.000000" stroke="none" 
	d="
M156.976746,204.716568 
	C156.721466,204.976761 156.422989,204.865433 156.027176,204.434937 
	C156.219452,204.312744 156.554031,204.389175 156.976746,204.716568 
z"/>
<path fill="#8EA4A8" opacity="1.000000" stroke="none" 
	d="
M103.295570,224.055145 
	C103.216492,223.803299 103.424179,223.529099 103.890945,223.196014 
	C103.960800,223.435684 103.771568,223.734238 103.295570,224.055145 
z"/>
<path fill="#8EA4A8" opacity="1.000000" stroke="none" 
	d="
M156.274689,224.018555 
	C156.177170,223.766861 156.370865,223.482849 156.818237,223.125427 
	C156.903244,223.363434 156.734573,223.674850 156.274689,224.018555 
z"/>
<path fill="#8EA4A8" opacity="1.000000" stroke="none" 
	d="
M107.019554,199.661255 
	C106.756813,199.811203 106.453300,199.672638 106.019386,199.309021 
	C106.252251,199.180222 106.615517,199.276474 107.019554,199.661255 
z"/>
<path fill="#FFFFFF" opacity="1.000000" stroke="none" 
	d="
M344.594604,216.395172 
	C342.208923,217.379898 339.968201,218.569687 337.831085,218.406067 
	C336.806061,218.327606 335.176147,215.636917 335.268127,214.223495 
	C335.375793,212.569870 336.692566,210.371078 338.134583,209.549957 
	C341.847534,207.435760 345.001404,210.653641 344.594604,216.395172 
z"/>
<path fill="#FFFFFF" opacity="1.000000" stroke="none" 
	d="
M378.024963,211.122131 
	C380.631561,208.540131 383.443481,208.006607 385.539307,210.598083 
	C386.627563,211.943649 387.161407,215.045898 386.337738,216.290390 
	C385.359985,217.767761 382.447632,219.085464 380.736938,218.728973 
	C376.912048,217.931915 376.226624,214.928726 378.024963,211.122131 
z"/>
<path fill="#FFFFFF" opacity="1.000000" stroke="none" 
	d="
M119.855133,211.207718 
	C122.330582,208.759277 124.778847,209.294342 125.218697,212.089706 
	C125.583427,214.407700 124.096977,217.016968 123.430634,219.497192 
	C122.192757,218.664520 120.313057,218.079758 119.872475,216.939117 
	C119.262787,215.360672 119.736176,213.363876 119.855133,211.207718 
z"/>
</svg>